<svg width="73" height="57" viewBox="0 0 73 57" fill="none" xmlns="http://www.w3.org/2000/svg">
<circle cx="4.30316" cy="26.0341" r="4.30316" fill="#9444FB"/>
<g style="mix-blend-mode:lighten" filter="url(#filter0_i_1_114)">
<path d="M8.60633 26.0341C8.60633 28.4107 6.67974 30.3373 4.30316 30.3373C1.92659 30.3373 0 28.4107 0 26.0341C0 23.6575 1.92659 21.731 4.30316 21.731C6.67974 21.731 8.60633 23.6575 8.60633 26.0341Z" fill="url(#paint0_linear_1_114)"/>
</g>
<circle cx="4.30316" cy="26.0341" r="4.30316" fill="url(#paint1_linear_1_114)"/>
<rect x="9.78967" y="21.731" width="29.7994" height="8.60633" rx="4.30316" fill="#9444FB"/>
<rect x="9.78967" y="21.731" width="29.7994" height="8.60633" rx="4.30316" fill="url(#paint2_linear_1_114)"/>
<rect x="9.78967" y="21.731" width="29.7994" height="8.60633" rx="4.30316" fill="url(#paint3_linear_1_114)"/>
<circle cx="4.30316" cy="15.1687" r="4.30316" fill="#9444FB"/>
<rect x="9.78967" y="10.8655" width="29.7994" height="8.60633" rx="4.30316" fill="#9444FB"/>
<circle cx="4.30316" cy="4.30316" r="4.30316" fill="#9444FB"/>
<rect x="9.78967" width="29.7994" height="8.60633" rx="4.30316" fill="#9444FB"/>
<path d="M7.13081 37.2218C5.45032 35.5413 5.45032 32.8167 7.13081 31.1362V31.1362C8.8113 29.4557 11.5359 29.4557 13.2164 31.1362L29.9518 47.8716C31.6323 49.5521 31.6323 52.2767 29.9518 53.9572V53.9572C28.2713 55.6377 25.5467 55.6377 23.8662 53.9572L7.13081 37.2218Z" fill="#4265E1"/>
<rect x="20.7628" y="50.9133" width="64.5475" height="8.60633" rx="4.30316" transform="rotate(-45 20.7628 50.9133)" fill="#4265E1"/>
<defs>
<filter id="filter0_i_1_114" x="0" y="21.731" width="8.60632" height="16.6063" filterUnits="userSpaceOnUse" color-interpolation-filters="sRGB">
<feFlood flood-opacity="0" result="BackgroundImageFix"/>
<feBlend mode="normal" in="SourceGraphic" in2="BackgroundImageFix" result="shape"/>
<feColorMatrix in="SourceAlpha" type="matrix" values="0 0 0 0 0 0 0 0 0 0 0 0 0 0 0 0 0 0 127 0" result="hardAlpha"/>
<feOffset dy="10"/>
<feGaussianBlur stdDeviation="4"/>
<feComposite in2="hardAlpha" operator="arithmetic" k2="-1" k3="1"/>
<feColorMatrix type="matrix" values="0 0 0 0 1 0 0 0 0 1 0 0 0 0 1 0 0 0 1 0"/>
<feBlend mode="normal" in2="shape" result="effect1_innerShadow_1_114"/>
</filter>
<linearGradient id="paint0_linear_1_114" x1="4.30316" y1="20.4938" x2="4.30316" y2="51.4228" gradientUnits="userSpaceOnUse">
<stop stop-color="#40E6DA"/>
<stop offset="1" stop-color="#23D8CD" stop-opacity="0"/>
</linearGradient>
<linearGradient id="paint1_linear_1_114" x1="4.30316" y1="21.731" x2="4.30316" y2="30.3373" gradientUnits="userSpaceOnUse">
<stop stop-color="#9444FB"/>
<stop offset="1" stop-color="#9444FB" stop-opacity="0"/>
</linearGradient>
<linearGradient id="paint2_linear_1_114" x1="15.33" y1="19.9559" x2="15.4914" y2="40.0194" gradientUnits="userSpaceOnUse">
<stop stop-color="#40E5DA"/>
<stop offset="1" stop-color="#40E5DA" stop-opacity="0"/>
</linearGradient>
<linearGradient id="paint3_linear_1_114" x1="24.6894" y1="21.731" x2="24.6894" y2="30.3373" gradientUnits="userSpaceOnUse">
<stop stop-color="#9444FB"/>
<stop offset="1" stop-color="#9444FB" stop-opacity="0"/>
</linearGradient>
</defs>
</svg>
